<?xml version="1.0" standalone="no"?>
<!DOCTYPE svg PUBLIC "-//W3C//DTD SVG 20010904//EN"
 "http://www.w3.org/TR/2001/REC-SVG-20010904/DTD/svg10.dtd">



<svg version="1.0" xmlns="http://www.w3.org/2000/svg"
 width="650.000000pt" height="524.000000pt" viewBox="0 0 650.000000 524.000000"
 preserveAspectRatio="xMidYMid meet" >


<g transform="translate(0.000000,524.000000) scale(0.100000,-0.100000)" fill="#000000" stroke="none">
<path d="M3005 5013 c-97 -9 -299 -46 -401 -73 -197 -52 -361 -123 -584 -254
-607 -354 -1037 -1006 -1144 -1736 -31 -212 -28 -227 51 -254 101 -35 204 -14
369 75 148 80 283 116 332 90 28 -15 28 -32 -3 -96 -26 -56 -41 -65 -110 -65
-29 0 -80 -20 -190 -74 -82 -41 -174 -81 -204 -90 -61 -18 -196 -21 -236 -6
l-27 10 7 -102 c4 -57 9 -105 12 -108 2 -2 35 -6 73 -8 83 -5 128 9 293 89
116 56 235 90 270 76 11 -4 13 -15 6 -54 -13 -81 -25 -103 -57 -103 -46 0
-133 -34 -249 -98 -118 -65 -182 -90 -255 -99 -27 -3 -48 -9 -48 -12 1 -14 39
-153 44 -158 2 -3 29 -2 58 2 35 5 95 29 178 72 128 65 203 93 252 93 l28 0 0
-70 c0 -66 -1 -70 -22 -70 -35 -1 -123 -41 -228 -104 -52 -31 -121 -64 -153
-73 -63 -18 -68 -29 -47 -104 24 -86 70 -87 201 -7 156 95 230 118 259 83 7
-8 13 -41 14 -73 l1 -57 -40 -5 c-47 -7 -93 -30 -201 -100 -44 -27 -85 -50
-91 -50 -17 0 -16 -10 3 -56 18 -43 51 -84 69 -84 6 0 55 25 110 55 54 30 122
60 151 66 l52 12 -9 31 c-5 17 -9 49 -9 71 l0 40 50 -3 c63 -5 134 27 232 103
71 55 72 58 90 128 24 92 59 168 157 330 117 197 114 188 114 297 -1 52 -8
129 -17 170 -76 342 -75 421 9 605 40 88 92 158 135 180 43 22 43 20 6 -37
-57 -87 -88 -195 -93 -328 -6 -135 10 -238 63 -401 62 -192 46 -265 -106 -498
-110 -171 -149 -256 -157 -349 -8 -103 34 -248 103 -352 15 -22 25 -42 23 -43
-2 -2 -38 -30 -79 -63 -145 -116 -230 -164 -323 -184 -72 -15 -86 -5 -119 81
l-23 59 -45 0 c-48 0 -112 -26 -193 -77 l-47 -31 35 -43 c20 -23 43 -51 50
-62 14 -20 15 -20 86 16 109 56 179 49 209 -23 17 -42 4 -55 -73 -70 -66 -12
-107 -33 -107 -53 0 -7 26 -39 59 -71 l58 -58 51 26 c76 38 105 35 142 -16 16
-22 30 -45 30 -50 0 -5 -20 -21 -45 -36 -24 -15 -45 -30 -45 -33 -1 -19 224
-180 234 -168 2 2 11 26 22 53 10 28 54 106 98 175 108 172 132 227 147 339
13 103 25 108 53 25 36 -105 13 -184 -103 -357 -109 -161 -150 -266 -120 -302
13 -16 109 -68 114 -62 1 2 8 32 14 68 15 77 43 135 124 255 33 50 79 126 101
170 37 73 40 87 41 160 0 71 -4 88 -32 146 -18 36 -80 127 -137 203 -143 187
-161 225 -161 346 0 75 5 106 23 151 26 65 93 167 169 259 129 155 137 263 42
533 -60 173 -84 281 -75 351 16 126 86 301 153 383 30 38 111 103 128 103 3 0
-15 -29 -41 -65 -86 -122 -134 -273 -136 -435 -1 -99 15 -163 73 -289 83 -176
92 -209 93 -306 0 -108 -9 -130 -138 -310 -138 -194 -174 -286 -163 -417 8
-88 51 -172 153 -293 153 -182 179 -239 171 -375 -6 -107 -29 -168 -108 -290
-116 -178 -157 -289 -143 -381 6 -37 9 -39 73 -60 36 -12 72 -24 79 -27 10 -3
11 11 6 66 -11 120 19 206 145 417 91 152 115 227 109 338 -6 99 -35 164 -128
277 -172 211 -195 256 -195 386 0 84 3 95 37 165 21 42 72 123 114 180 109
149 119 172 119 294 -1 110 -8 136 -95 344 -72 172 -83 224 -77 361 7 149 36
238 114 341 33 44 129 126 137 118 3 -2 -22 -43 -54 -90 -89 -134 -104 -179
-104 -329 -1 -148 9 -189 97 -395 102 -241 120 -300 115 -370 -7 -81 -36 -147
-129 -290 -118 -182 -134 -221 -134 -330 0 -82 3 -96 32 -150 17 -33 72 -110
121 -172 97 -122 138 -202 155 -299 20 -117 -7 -209 -125 -425 -95 -173 -118
-259 -104 -393 10 -92 26 -109 112 -117 38 -3 70 -5 72 -4 1 1 -7 28 -18 60
-24 71 -26 176 -5 260 9 33 54 138 101 234 108 219 125 267 125 356 0 114 -34
182 -190 380 -39 49 -85 116 -103 150 -28 51 -33 70 -33 130 0 85 22 136 120
279 37 54 81 128 97 165 50 111 64 117 180 81 80 -25 125 -25 216 0 79 22 124
25 152 10 10 -5 31 -38 47 -73 17 -34 65 -109 107 -166 90 -121 113 -164 126
-229 20 -110 -27 -220 -174 -405 -101 -128 -141 -199 -156 -277 -15 -81 2
-139 99 -330 49 -96 101 -209 116 -250 44 -124 44 -260 0 -364 -7 -16 -5 -18
10 -13 10 4 46 13 81 19 74 14 81 25 91 140 11 127 -24 230 -164 480 -128 228
-110 336 102 617 117 156 129 176 144 251 23 111 -19 222 -159 419 -88 124
-110 180 -110 274 0 80 21 149 92 297 33 69 74 166 91 215 27 80 31 103 31
205 1 170 -41 294 -139 414 -50 62 -47 70 11 28 60 -44 122 -119 160 -195 91
-180 86 -324 -21 -621 -82 -224 -97 -283 -93 -361 5 -92 34 -154 139 -292 140
-184 170 -279 131 -410 -24 -79 -66 -147 -181 -294 -118 -151 -136 -191 -136
-309 0 -110 11 -141 111 -310 128 -218 161 -313 149 -422 -4 -32 -5 -58 -3
-58 1 0 34 11 73 24 85 29 94 46 76 150 -14 82 -52 163 -148 312 -89 138 -107
190 -101 289 7 101 56 201 187 378 56 76 109 157 118 180 26 69 21 189 -11
271 -30 79 -38 94 -158 274 -100 152 -124 214 -113 299 8 65 40 160 89 265 54
115 69 186 68 313 -1 169 -43 305 -133 438 l-41 59 42 -23 c62 -35 116 -102
166 -204 98 -202 97 -316 -2 -640 -60 -197 -65 -261 -30 -357 15 -40 49 -104
76 -143 177 -250 200 -298 200 -415 0 -51 -7 -86 -25 -132 -23 -58 -157 -257
-226 -336 -16 -18 -41 -56 -56 -85 -23 -43 -27 -64 -27 -122 1 -90 25 -151
115 -296 95 -152 148 -263 156 -327 3 -29 9 -52 14 -52 17 0 95 38 108 53 29
36 -15 147 -118 301 -105 155 -114 178 -115 280 0 69 4 99 17 124 24 44 37 32
37 -32 0 -99 41 -197 155 -371 54 -81 94 -154 114 -208 l11 -27 72 46 c40 26
92 63 116 82 48 39 46 48 -18 77 -50 23 -52 48 -7 99 l32 38 74 -26 74 -26 33
25 c32 25 84 85 84 98 0 10 -88 53 -137 67 -24 7 -43 18 -43 23 0 6 12 30 26
55 26 44 26 44 72 38 25 -3 81 -21 124 -40 l78 -34 34 42 c48 59 58 82 43 94
-28 23 -220 112 -242 112 -23 0 -43 -30 -60 -90 -13 -47 -34 -70 -63 -70 -78
0 -201 61 -323 159 -127 102 -122 87 -61 205 58 113 72 158 72 231 0 112 -40
207 -170 406 -122 187 -135 218 -134 314 1 60 11 109 38 200 47 155 70 300 62
387 -7 79 -42 195 -91 302 -19 42 -31 76 -27 76 13 -1 79 -55 107 -88 71 -84
120 -291 112 -472 -4 -99 -10 -131 -42 -225 -33 -99 -37 -117 -32 -185 6 -95
36 -164 147 -335 97 -150 128 -214 142 -297 11 -62 12 -64 87 -127 96 -81 166
-114 228 -109 l45 3 -6 -76 -7 -76 42 -6 c23 -3 94 -31 156 -61 63 -31 119
-56 124 -56 5 0 22 24 39 53 29 51 38 87 21 87 -5 0 -57 30 -117 66 -120 73
-165 94 -200 94 -12 0 -25 4 -28 9 -7 10 14 112 25 124 13 16 134 -23 219 -71
113 -64 166 -86 185 -78 9 3 27 29 40 58 41 94 41 93 -13 107 -27 6 -102 42
-168 78 -126 69 -203 103 -233 103 -15 0 -20 9 -22 43 -2 23 -3 55 -1 71 4 28
4 28 55 23 38 -3 86 -22 182 -72 194 -100 274 -124 293 -88 6 10 13 43 17 73
3 30 8 62 11 71 4 13 -7 17 -55 22 -61 5 -128 34 -317 136 -54 29 -117 54
-152 61 -64 13 -65 14 -77 80 -4 19 -9 43 -12 54 -5 17 0 18 74 14 71 -4 91
-10 218 -70 77 -37 158 -72 179 -78 52 -17 163 -17 179 -1 16 16 24 217 8 207
-6 -4 -37 -11 -68 -16 -88 -15 -159 3 -316 76 -159 75 -229 101 -299 110 -47
6 -52 10 -68 48 -10 23 -22 53 -25 68 -6 24 -3 28 20 34 15 4 58 4 96 2 63 -5
86 -14 245 -94 176 -89 176 -89 252 -89 66 0 85 4 127 28 58 32 56 14 29 237
-43 358 -166 701 -351 985 -180 275 -441 533 -733 723 -317 207 -597 308 -988
357 -107 14 -427 18 -537 8z m265 -183 c11 -19 37 -77 59 -128 22 -52 41 -96
43 -98 2 -2 68 -7 146 -10 80 -4 146 -12 149 -18 4 -5 -44 -58 -105 -117 -62
-59 -112 -110 -112 -115 0 -14 105 -264 111 -264 3 0 48 25 100 57 52 31 130
73 174 94 113 54 245 86 245 59 0 -5 -17 -56 -39 -112 -40 -106 -56 -172 -47
-187 3 -5 51 9 107 31 104 41 244 76 255 65 4 -4 -17 -46 -45 -94 -85 -144
-130 -243 -149 -329 l-17 -82 -75 30 c-185 71 -371 130 -474 149 -159 30 -406
36 -561 15 -205 -29 -435 -94 -604 -172 -41 -19 -75 -34 -77 -34 -2 0 -4 9 -4
21 0 68 -97 286 -182 413 -32 46 -38 60 -27 67 26 17 144 -14 307 -80 l52 -21
0 33 c0 47 -27 131 -67 211 -40 79 -35 91 32 81 50 -7 207 -82 344 -164 57
-34 110 -60 117 -57 28 11 125 272 106 287 -25 20 -208 186 -214 194 -14 20
10 25 151 32 l144 8 60 138 c34 75 65 136 70 134 4 -1 17 -18 27 -37z m-1803
-1025 c75 -86 128 -198 147 -316 l6 -36 106 39 c148 54 207 68 296 68 74 0
157 -19 186 -43 17 -14 -5 -37 -93 -97 -76 -51 -221 -198 -292 -294 l-45 -61
-111 -6 c-125 -7 -179 -24 -364 -110 -59 -28 -130 -55 -156 -61 -61 -13 -149
-2 -178 21 l-22 18 110 169 c130 199 163 258 202 352 44 107 61 197 61 326 0
82 3 116 13 119 21 8 88 -36 134 -88z m3713 75 c11 -7 13 -23 10 -67 -8 -100
-2 -207 15 -274 20 -79 87 -221 147 -314 25 -38 80 -123 122 -188 l76 -118
-46 -20 c-37 -17 -62 -20 -118 -17 -64 3 -86 11 -221 76 -166 79 -214 92 -350
92 l-92 0 -28 43 c-85 129 -235 279 -355 353 -69 42 -72 58 -20 88 30 18 52
21 155 21 131 -1 176 -12 319 -80 39 -19 72 -33 73 -31 1 1 13 43 27 94 13 50
35 113 48 139 29 59 110 148 167 185 50 31 50 31 71 18z m-1711 -216 c109 -36
168 -82 210 -166 44 -88 40 -98 -34 -85 -66 12 -185 -1 -253 -28 -69 -28 -87
-68 -87 -197 0 -84 3 -111 16 -123 21 -21 39 -12 67 31 20 31 28 35 50 30 70
-15 151 -18 187 -6 33 11 39 10 56 -7 48 -48 26 -197 -54 -367 -55 -116 -146
-216 -238 -264 -193 -99 -442 28 -561 286 -55 121 -77 291 -42 340 16 24 67
31 80 11 4 -8 38 -9 111 -4 74 5 108 4 118 -5 19 -16 53 3 61 36 3 13 3 62 -1
108 -5 68 -11 88 -28 105 -45 41 -96 55 -205 56 -126 1 -135 8 -96 81 74 140
189 192 427 193 122 1 146 -2 216 -25z m-523 -345 c50 -13 124 -73 108 -89 -6
-6 -28 -4 -58 5 -67 20 -109 19 -139 -5 -34 -27 -55 -25 -63 4 -11 46 -1 70
36 83 45 15 61 15 116 2z m734 -24 c22 -20 26 -55 9 -72 -8 -8 -26 -6 -68 9
-55 19 -122 20 -163 3 -25 -10 -35 22 -14 43 41 41 196 53 236 17z"/>
<path d="M3123 4102 c-76 -57 -102 -82 -100 -97 2 -19 9 -20 215 -20 146 0
217 4 223 11 6 8 -4 24 -32 48 -40 37 -185 136 -198 136 -3 0 -52 -35 -108
-78z"/>
<path d="M3123 2932 c-13 -14 -10 -17 34 -34 59 -22 85 -23 140 -2 78 30 51
49 -70 50 -67 1 -92 -3 -104 -14z"/>
<path d="M3051 2768 c0 -7 30 -39 65 -70 61 -56 65 -58 120 -58 66 0 106 20
159 83 26 30 32 43 23 49 -7 4 -93 8 -190 8 -136 0 -178 -3 -177 -12z"/>
</g>
</svg>
